<?xml version="1.0" encoding="UTF-8"?>
<svg width="415px" height="402px" viewBox="0 0 415 402" version="1.1" xmlns="http://www.w3.org/2000/svg" xmlns:xlink="http://www.w3.org/1999/xlink">
    <!-- Generator: Sketch 44.1 (41455) - http://www.bohemiancoding.com/sketch -->
    <title>013-ufo-1</title>
    <desc>Created with Sketch.</desc>
    <defs></defs>
    <g id="Symbols" stroke="none" stroke-width="1" fill="none" fill-rule="evenodd">
        <g id="013-ufo-1" fill-rule="nonzero" fill="#FFFFFF">
            <g>
                <path d="M405.504,251.536 L395.264,244.368 L395.776,231.568 C395.776,229.52 394.752,227.984 393.216,226.96 C391.68,225.936 389.632,226.448 387.584,227.472 L377.344,234.64 L365.568,230.544 C363.52,230.032 361.472,230.544 360.448,231.568 C358.912,233.104 358.4,235.152 358.912,236.688 L363.008,248.464 L355.328,258.192 C354.304,259.728 353.792,261.776 354.816,263.824 C355.84,265.36 357.376,266.896 359.424,266.896 L372.224,266.896 L379.392,277.136 C380.416,278.672 381.952,279.184 383.488,279.184 L384,279.184 C386.048,278.672 387.584,277.648 388.096,275.6 L392.192,263.824 L404.48,260.24 C406.528,259.728 407.552,258.192 408.064,256.144 C407.552,254.608 407.04,253.072 405.504,251.536 Z M386.56,255.12 C385.024,255.632 383.488,256.656 382.976,258.192 L381.44,262.8 L378.88,258.704 C377.856,257.168 376.32,256.656 374.784,256.656 L369.664,256.656 L372.736,252.56 C373.76,251.024 374.272,249.488 373.76,247.952 L372.224,243.344 L376.832,244.88 C378.368,245.392 380.416,245.392 381.44,244.368 L385.536,241.296 L385.536,246.416 C385.536,247.952 386.048,249.488 387.584,250.512 L391.68,253.584 L386.56,255.12 Z" id="Shape"></path>
                <path d="M359.424,38.544 L349.184,31.376 L349.696,18.576 C349.696,16.528 348.672,14.992 347.136,13.968 C345.6,12.944 343.552,13.456 341.504,14.48 L331.264,21.648 L319.488,17.552 C317.44,17.04 315.392,17.552 314.368,18.576 C312.832,20.112 312.32,22.16 312.832,23.696 L316.928,35.472 L309.248,45.2 C308.224,46.736 307.712,48.784 308.736,50.832 C309.76,52.368 311.296,53.904 313.344,53.904 L326.144,53.904 L333.312,64.144 C334.336,65.68 335.872,66.192 337.408,66.192 L337.92,66.192 C339.968,65.68 341.504,64.656 342.016,62.608 L346.112,50.832 L358.4,47.248 C359.936,47.248 361.472,45.712 361.472,43.664 C361.984,41.616 360.96,39.568 359.424,38.544 Z M340.48,42.128 C338.944,42.64 337.408,43.664 336.896,45.2 L335.36,49.808 L332.8,45.712 C331.776,44.176 330.24,43.664 328.704,43.664 L323.584,43.664 L326.656,39.568 C327.68,38.032 328.192,36.496 327.68,34.96 L326.144,30.864 L330.752,32.4 C332.288,32.912 334.336,32.912 335.36,31.888 L339.456,28.816 L339.456,33.936 C339.456,35.472 339.968,37.008 341.504,38.032 L345.6,41.104 L340.48,42.128 Z" id="Shape"></path>
                <circle id="Oval" cx="380.928" cy="175.248" r="5.632"></circle>
                <circle id="Oval" cx="394.752" cy="14.48" r="5.632"></circle>
                <circle id="Oval" cx="258.56" cy="6.288" r="5.632"></circle>
                <circle id="Oval" cx="25.088" cy="72.336" r="5.632"></circle>
                <path d="M394.752,86.672 C384,86.672 375.296,95.376 375.296,106.128 C375.296,116.88 384,125.584 394.752,125.584 C405.504,125.584 414.208,116.88 414.208,106.128 C414.208,95.376 405.504,86.672 394.752,86.672 Z M394.752,115.344 C389.632,115.344 385.536,111.248 385.536,106.128 C385.536,101.008 389.632,96.912 394.752,96.912 C399.872,96.912 403.968,101.008 403.968,106.128 C403.968,111.248 399.872,115.344 394.752,115.344 Z" id="Shape"></path>
                <path d="M19.456,141.968 C8.704,141.968 0,150.672 0,161.424 C0,172.176 8.704,180.88 19.456,180.88 C30.208,180.88 38.912,172.176 38.912,161.424 C38.912,150.672 30.208,141.968 19.456,141.968 Z M19.968,170.64 C14.848,170.64 10.752,166.544 10.752,161.424 C10.752,156.304 14.848,152.208 19.968,152.208 C25.088,152.208 29.184,156.304 29.184,161.424 C29.184,166.544 25.088,170.64 19.968,170.64 Z" id="Shape"></path>
                <path d="M46.592,303.76 C35.84,303.76 27.136,312.464 27.136,323.216 C27.136,333.968 35.84,342.672 46.592,342.672 C57.344,342.672 66.048,333.968 66.048,323.216 C66.048,312.464 57.344,303.76 46.592,303.76 Z M47.104,332.432 C41.984,332.432 37.888,328.336 37.888,323.216 C37.888,318.096 41.984,314 47.104,314 C52.224,314 56.32,318.096 56.32,323.216 C56.32,328.336 52.224,332.432 47.104,332.432 Z" id="Shape"></path>
                <path d="M25.088,2.192 C14.336,2.192 5.632,10.896 5.632,21.648 C6.144,32.4 14.848,41.104 25.088,41.104 C35.84,41.104 44.544,32.4 44.544,21.648 C44.544,10.896 35.84,2.192 25.088,2.192 Z M25.088,31.376 C19.968,31.376 15.872,27.28 15.872,22.16 C15.872,17.04 20.48,12.944 25.088,12.944 C30.208,12.944 34.304,17.04 34.304,22.16 C34.304,27.28 30.208,31.376 25.088,31.376 Z" id="Shape"></path>
                <path d="M146.432,201.872 C140.8,190.096 126.976,184.464 115.2,189.584 C103.424,194.704 97.792,208.528 102.912,220.304 C106.496,229.008 115.2,234.64 124.416,234.64 C127.488,234.64 130.56,234.128 133.632,232.592 C139.264,230.032 143.872,225.424 146.432,219.792 C148.992,214.16 148.48,207.504 146.432,201.872 Z M136.704,216.208 C135.168,219.28 133.12,221.84 129.536,223.376 C122.88,226.448 115.2,222.864 112.128,216.208 C109.056,209.552 112.64,201.872 119.296,198.8 C120.832,198.288 122.88,197.776 124.416,197.776 C129.536,197.776 134.656,200.848 136.704,205.968 C137.728,209.04 137.728,212.624 136.704,216.208 Z" id="Shape"></path>
                <path d="M208.384,175.248 C205.824,169.616 201.728,165.008 195.584,162.96 C189.952,160.4 183.296,160.912 177.664,162.96 C172.032,165.52 167.424,170.128 164.864,175.76 C162.304,181.392 162.816,188.048 164.864,193.68 C167.424,199.312 172.032,203.92 177.664,206.48 C180.736,207.504 183.296,208.016 186.368,208.016 C189.44,208.016 192.512,207.504 195.584,205.968 C201.216,203.408 205.824,198.8 208.384,193.168 C210.944,187.536 210.432,180.88 208.384,175.248 Z M199.168,189.584 C197.632,192.656 195.584,195.216 192,196.752 C188.928,198.288 185.344,198.288 181.76,196.752 C178.688,195.216 176.128,193.168 174.592,189.584 C173.056,186.512 173.056,182.928 174.592,179.344 C176.128,176.272 178.176,173.712 181.76,172.176 C183.296,171.664 185.344,171.152 186.88,171.152 C188.416,171.152 190.464,171.664 192,172.176 C195.072,173.712 197.632,175.76 199.168,179.344 C200.192,182.416 200.704,186 199.168,189.584 Z" id="Shape"></path>
                <path d="M270.848,148.624 C268.288,142.992 263.68,138.384 258.048,135.824 C252.416,133.264 245.76,133.776 240.128,135.824 C234.496,138.384 229.888,142.992 227.328,148.624 C224.768,154.256 225.28,160.912 227.328,166.544 C230.912,175.248 239.616,180.88 248.832,180.88 C251.904,180.88 254.976,180.368 258.048,178.832 C270.336,174.736 275.968,160.912 270.848,148.624 Z M254.464,170.128 C247.808,173.2 240.128,169.616 237.056,162.96 C235.52,159.888 235.52,156.304 237.056,152.72 C238.592,149.648 240.64,147.088 244.224,145.552 C245.76,145.04 247.808,144.528 249.344,144.528 C254.464,144.528 259.584,147.6 261.632,152.72 C264.704,159.376 261.12,167.056 254.464,170.128 Z" id="Shape"></path>
                <path d="M247.808,89.232 C242.176,76.944 234.496,66.192 224.256,56.976 C222.208,54.928 219.136,55.44 217.088,57.488 C215.04,59.536 215.552,62.608 217.6,64.656 C226.816,72.336 233.472,82.064 238.592,93.328 C239.616,95.376 241.152,96.4 243.2,96.4 C243.712,96.4 244.736,96.4 245.248,95.888 C247.808,94.864 248.832,91.792 247.808,89.232 Z" id="Shape"></path>
                <path d="M210.432,47.248 C185.856,32.912 157.184,31.376 131.072,42.128 C128.512,43.152 127.488,46.224 128.512,48.784 C129.536,51.344 132.608,52.368 135.168,51.344 C158.208,41.616 183.808,43.152 205.312,55.952 C206.336,56.464 206.848,56.464 207.872,56.464 C209.408,56.464 211.456,55.44 212.48,53.904 C214.016,51.856 212.992,48.784 210.432,47.248 Z" id="Shape"></path>
                <path d="M382.464,367.248 L271.872,201.872 L283.648,196.752 L321.024,220.304 C322.048,220.816 322.56,221.328 323.584,221.328 C325.12,221.328 327.168,220.304 328.192,218.768 C329.728,216.208 328.704,213.136 326.656,211.6 L295.424,191.632 L315.392,182.928 C327.68,177.808 336.896,168.08 341.504,156.304 C346.624,144.016 346.112,130.704 340.992,118.928 C335.872,106.64 326.144,97.424 314.368,92.816 C302.08,87.696 288.768,88.208 276.992,93.328 L276.48,93.328 L271.36,81.552 C259.072,52.368 236.032,29.84 206.848,18.064 C177.664,6.288 145.408,6.288 116.224,18.576 C56.32,44.176 28.16,113.808 53.76,173.712 L58.88,185.488 L58.368,185.488 C33.28,196.24 22.016,224.912 32.256,250 C37.376,262.288 47.104,271.504 58.88,276.112 C65.024,278.672 71.168,279.696 77.312,279.696 C83.968,279.696 90.112,278.16 96.256,275.6 L116.224,266.896 L109.056,303.76 C108.544,306.32 110.08,309.392 113.152,309.904 C113.664,309.904 113.664,309.904 114.176,309.904 C116.736,309.904 118.784,308.368 119.296,305.808 L128.512,262.8 L140.288,257.68 L149.504,378.512 C149.504,379.024 149.504,379.024 150.016,379.536 C150.016,380.56 149.504,381.072 150.016,382.096 C150.016,387.728 155.136,394.384 187.904,398.48 C204.288,400.528 224.256,401.552 245.76,401.552 C253.44,401.552 261.12,401.552 268.8,401.04 C299.52,400.016 328.192,397.456 349.696,392.848 C382.464,386.704 386.56,379.536 386.56,373.904 C386.048,371.856 385.536,369.296 382.464,367.248 Z M62.976,87.184 C73.728,60.56 94.208,39.568 120.832,28.304 C147.456,17.04 176.64,16.528 203.264,27.28 C229.888,38.032 250.88,58.512 262.144,85.136 L267.264,96.912 L68.608,181.392 L63.488,169.616 C52.224,142.992 52.224,113.808 62.976,87.184 Z M92.672,266.384 C82.944,270.48 72.704,270.48 62.976,266.384 C53.248,262.288 46.08,255.12 41.984,245.392 C37.888,235.664 37.888,225.424 41.984,215.696 C46.08,205.968 53.248,198.8 62.976,194.704 L281.6,102.032 C286.72,99.984 291.84,98.96 296.96,98.96 C302.08,98.96 306.688,99.984 311.296,102.032 C321.024,106.128 328.192,113.296 332.288,123.024 C336.384,132.752 336.384,142.992 332.288,152.72 C328.192,162.448 321.024,169.616 311.296,173.712 L92.672,266.384 Z M150.016,253.584 L262.656,205.968 L366.08,360.592 C361.472,359.568 355.328,358.544 348.16,357.52 C326.144,354.96 297.472,353.936 267.264,354.96 C236.544,355.984 207.872,358.544 186.368,363.152 C173.056,365.712 164.352,368.272 159.232,370.832 L150.016,253.584 Z M268.288,390.8 C208.384,392.848 167.936,386.704 160.256,381.584 C167.424,375.44 207.36,367.248 267.264,365.2 C326.656,363.152 366.592,369.296 374.784,374.416 C367.616,380.048 328.192,388.752 268.288,390.8 Z" id="Shape"></path>
            </g>
        </g>
    </g>
</svg>