<?xml version="1.0" encoding="UTF-8"?>
<svg width="408px" height="380px" viewBox="0 0 408 380" version="1.1" xmlns="http://www.w3.org/2000/svg" xmlns:xlink="http://www.w3.org/1999/xlink">
    <!-- Generator: Sketch 44.1 (41455) - http://www.bohemiancoding.com/sketch -->
    <title>007-moon-rover</title>
    <desc>Created with Sketch.</desc>
    <defs></defs>
    <g id="Symbols" stroke="none" stroke-width="1" fill="none" fill-rule="evenodd">
        <g id="007-moon-rover" transform="translate(0.000000, -1.000000)" fill-rule="nonzero" fill="#FFFFFF">
            <g id="Shape">
                <path d="M88.576,309.93 C74.24,309.93 62.976,321.706 62.976,335.53 C62.976,349.354 74.752,361.13 88.576,361.13 C102.4,361.13 114.176,349.354 114.176,335.53 C114.176,321.706 102.4,309.93 88.576,309.93 Z M88.576,351.402 C79.872,351.402 73.216,344.234 73.216,336.042 C73.216,327.85 80.384,320.682 88.576,320.682 C97.28,320.682 103.936,327.85 103.936,336.042 C103.936,344.234 96.768,351.402 88.576,351.402 Z"></path>
                <path d="M205.312,309.93 C190.976,309.93 179.712,321.706 179.712,335.53 C179.712,349.354 191.488,361.13 205.312,361.13 C219.648,361.13 230.912,349.354 230.912,335.53 C230.912,321.706 219.648,309.93 205.312,309.93 Z M205.312,351.402 C196.608,351.402 189.952,344.234 189.952,336.042 C189.952,327.85 197.12,320.682 205.312,320.682 C214.016,320.682 220.672,327.85 220.672,336.042 C220.672,344.234 214.016,351.402 205.312,351.402 Z"></path>
                <path d="M322.048,309.93 C307.712,309.93 296.448,321.706 296.448,335.53 C296.448,349.354 308.224,361.13 322.048,361.13 C335.872,361.13 347.648,349.354 347.648,335.53 C347.648,321.706 336.384,309.93 322.048,309.93 Z M322.048,351.402 C313.344,351.402 306.688,344.234 306.688,336.042 C306.688,327.85 313.856,320.682 322.048,320.682 C330.24,320.682 337.408,327.85 337.408,336.042 C337.408,344.234 330.752,351.402 322.048,351.402 Z"></path>
                <path d="M392.192,179.882 C392.192,177.322 390.144,175.786 387.584,175.786 L322.56,175.786 L322.56,149.674 C322.56,146.602 320.512,144.554 317.44,144.554 L272.384,144.554 L272.384,121.514 C272.384,119.466 271.36,117.93 269.824,116.906 L215.04,87.722 C223.744,73.386 226.304,57.002 222.72,40.618 C218.624,24.234 208.896,10.41 194.56,1.706 C192,0.17 188.928,1.194 187.392,3.242 L157.184,52.394 L146.944,46.25 C147.456,44.202 147.456,41.642 146.944,39.594 C145.92,35.498 143.36,32.426 140.288,29.866 C136.704,27.818 132.608,26.794 128.512,27.818 C124.416,28.842 121.344,31.402 118.784,34.474 C116.736,38.058 115.712,42.154 116.736,46.25 C117.76,50.346 120.32,53.418 123.392,55.978 C125.952,57.514 128.512,58.026 131.584,58.026 C132.608,58.026 134.144,58.026 135.168,57.514 C137.216,57.002 139.264,55.978 141.312,54.442 L151.552,60.586 L121.344,109.738 C119.808,112.298 120.832,115.37 122.88,116.906 C133.12,123.05 144.384,126.122 155.648,126.122 C176.64,126.122 197.632,115.37 209.408,96.426 L262.144,124.074 L262.144,144.042 L217.088,144.042 C214.016,144.042 211.968,146.09 211.968,149.162 L211.968,175.274 L167.424,175.274 L167.424,163.498 C167.424,152.234 158.208,143.018 146.944,143.018 C135.68,143.018 126.464,152.234 126.464,163.498 L126.464,175.274 L109.056,175.274 L109.056,163.498 C109.056,152.234 99.84,143.018 88.576,143.018 C77.312,143.018 68.096,152.234 68.096,163.498 L68.096,175.274 L25.6,175.274 C23.04,175.274 20.992,177.322 20.48,179.882 L0,339.626 C0,341.162 0.512,342.698 1.024,343.722 C2.048,344.746 3.584,345.258 5.12,345.258 L44.544,345.258 C49.152,365.226 67.072,380.586 88.576,380.586 C110.08,380.586 128,365.226 132.608,345.258 L161.28,345.258 C165.888,365.226 183.808,380.586 205.312,380.586 C226.816,380.586 244.736,365.226 249.344,345.258 L278.016,345.258 C282.624,365.226 300.544,380.586 322.048,380.586 C343.552,380.586 361.472,365.226 366.08,345.258 L402.432,345.258 C403.968,345.258 405.504,344.746 406.016,343.722 C407.04,342.698 407.552,341.162 407.552,339.626 L392.192,179.882 Z M136.192,45.226 C135.68,46.25 134.144,47.274 133.12,47.274 C131.584,47.786 130.56,47.274 129.024,46.762 C128,46.25 126.976,44.714 126.976,43.69 C126.464,42.154 126.976,41.13 127.488,39.594 C128,38.57 129.536,37.546 130.56,37.546 C131.072,37.546 131.584,37.546 131.584,37.546 C132.608,37.546 133.632,38.058 134.144,38.058 C135.168,38.57 136.192,40.106 136.192,41.13 C137.216,42.666 136.704,44.202 136.192,45.226 Z M205.824,82.602 L200.704,90.794 C186.368,114.346 156.672,122.538 132.608,110.25 L193.024,12.97 C202.752,20.138 209.408,30.89 212.48,42.666 C215.552,56.49 213.504,70.314 205.824,82.602 Z M222.208,154.282 L312.832,154.282 L312.832,175.274 L222.208,175.274 L222.208,154.282 Z M136.704,163.498 C136.704,157.866 141.312,153.258 146.944,153.258 C152.576,153.258 157.184,157.866 157.184,163.498 L157.184,175.274 L136.704,175.274 L136.704,163.498 L136.704,163.498 Z M78.336,163.498 C78.336,157.866 82.944,153.258 88.576,153.258 C94.208,153.258 98.816,157.866 98.816,163.498 L98.816,175.274 L78.336,175.274 L78.336,163.498 L78.336,163.498 Z M88.576,370.858 C69.12,370.858 53.76,354.986 53.76,336.042 C53.76,317.098 69.632,301.226 88.576,301.226 C108.032,301.226 123.392,317.098 123.392,336.042 C123.392,354.986 107.52,370.858 88.576,370.858 Z M205.312,370.858 C185.856,370.858 170.496,354.986 170.496,336.042 C170.496,317.098 186.368,301.226 205.312,301.226 C224.768,301.226 240.128,317.098 240.128,336.042 C240.128,354.986 224.768,370.858 205.312,370.858 Z M322.048,370.858 C302.592,370.858 287.232,354.986 287.232,336.042 C287.232,317.098 303.104,301.226 322.048,301.226 C341.504,301.226 356.864,317.098 356.864,336.042 C356.864,354.986 341.504,370.858 322.048,370.858 Z M367.616,335.53 C367.616,310.954 347.136,290.474 322.56,290.474 C297.984,290.474 277.504,310.442 277.504,335.53 L250.88,335.53 C250.88,310.954 230.4,290.474 205.824,290.474 C181.248,290.474 160.768,310.442 160.768,335.53 L134.144,335.53 C134.144,310.954 113.664,290.474 89.088,290.474 C64.512,290.474 44.032,310.442 44.032,335.53 L11.264,335.53 L30.208,186.026 L383.488,186.026 L397.312,335.53 L367.616,335.53 Z"></path>
                <path d="M322.048,215.21 L87.04,215.21 C83.968,215.21 81.92,217.258 81.92,220.33 L81.92,251.05 C81.92,254.122 83.968,256.17 87.04,256.17 L322.048,256.17 C325.12,256.17 327.168,254.122 327.168,251.05 L327.168,220.33 C327.168,217.258 325.12,215.21 322.048,215.21 Z M316.928,245.93 L92.16,245.93 L92.16,225.45 L316.928,225.45 L316.928,245.93 Z"></path>
            </g>
        </g>
    </g>
</svg>